<mxfile host="Electron" modified="2023-06-06T09:58:17.139Z" agent="Mozilla/5.0 (Windows NT 10.0; Win64; x64) AppleWebKit/537.36 (KHTML, like Gecko) draw.io/21.2.8 Chrome/112.0.5615.165 Electron/24.2.0 Safari/537.36" etag="C3mLwVNGoc72gV5C43hH" version="21.2.8" type="device">
  <diagram name="Page-1" id="V7W2uEI4DhbZuELZhJdI">
    <mxGraphModel dx="1416" dy="818" grid="1" gridSize="10" guides="1" tooltips="1" connect="1" arrows="1" fold="1" page="1" pageScale="1" pageWidth="850" pageHeight="1100" math="0" shadow="0">
      <root>
        <mxCell id="0" />
        <mxCell id="1" parent="0" />
        <mxCell id="s36Txg1I-ZyYt9nDHsyk-48" value="&lt;div style=&quot;box-sizing:border-box;width:100%;background:#e4e4e4;padding:2px;&quot;&gt;Planets&lt;/div&gt;&lt;table style=&quot;width:100%;font-size:1em;&quot; cellpadding=&quot;2&quot; cellspacing=&quot;0&quot;&gt;&lt;tbody&gt;&lt;tr&gt;&lt;td&gt;PK&lt;/td&gt;&lt;td&gt;PlanetsID&lt;/td&gt;&lt;/tr&gt;&lt;tr&gt;&lt;td&gt;&lt;br&gt;&lt;/td&gt;&lt;td&gt;Picture&lt;br&gt;&lt;/td&gt;&lt;/tr&gt;&lt;tr&gt;&lt;td&gt;&lt;/td&gt;&lt;td&gt;Text&lt;/td&gt;&lt;/tr&gt;&lt;/tbody&gt;&lt;/table&gt;" style="verticalAlign=top;align=left;overflow=fill;html=1;whiteSpace=wrap;" vertex="1" parent="1">
          <mxGeometry x="250" y="370" width="180" height="90" as="geometry" />
        </mxCell>
        <mxCell id="s36Txg1I-ZyYt9nDHsyk-49" value="&lt;div style=&quot;box-sizing:border-box;width:100%;background:#e4e4e4;padding:2px;&quot;&gt;Galaxies&lt;/div&gt;&lt;table style=&quot;width:100%;font-size:1em;&quot; cellpadding=&quot;2&quot; cellspacing=&quot;0&quot;&gt;&lt;tbody&gt;&lt;tr&gt;&lt;td&gt;PK&lt;/td&gt;&lt;td&gt;GalaxyID&lt;/td&gt;&lt;/tr&gt;&lt;tr&gt;&lt;td&gt;&lt;br&gt;&lt;/td&gt;&lt;td&gt;Picture&lt;br&gt;&lt;/td&gt;&lt;/tr&gt;&lt;tr&gt;&lt;td&gt;&lt;/td&gt;&lt;td&gt;Text&lt;/td&gt;&lt;/tr&gt;&lt;/tbody&gt;&lt;/table&gt;" style="verticalAlign=top;align=left;overflow=fill;html=1;whiteSpace=wrap;" vertex="1" parent="1">
          <mxGeometry x="490" y="370" width="180" height="90" as="geometry" />
        </mxCell>
        <mxCell id="s36Txg1I-ZyYt9nDHsyk-50" value="&lt;div style=&quot;box-sizing:border-box;width:100%;background:#e4e4e4;padding:2px;&quot;&gt;Comets&lt;/div&gt;&lt;table style=&quot;width:100%;font-size:1em;&quot; cellpadding=&quot;2&quot; cellspacing=&quot;0&quot;&gt;&lt;tbody&gt;&lt;tr&gt;&lt;td&gt;PK&lt;/td&gt;&lt;td&gt;CometID&lt;/td&gt;&lt;/tr&gt;&lt;tr&gt;&lt;td&gt;&lt;br&gt;&lt;/td&gt;&lt;td&gt;Picture&lt;br&gt;&lt;/td&gt;&lt;/tr&gt;&lt;tr&gt;&lt;td&gt;&lt;/td&gt;&lt;td&gt;Text&lt;/td&gt;&lt;/tr&gt;&lt;/tbody&gt;&lt;/table&gt;" style="verticalAlign=top;align=left;overflow=fill;html=1;whiteSpace=wrap;" vertex="1" parent="1">
          <mxGeometry x="245" y="520" width="180" height="90" as="geometry" />
        </mxCell>
      </root>
    </mxGraphModel>
  </diagram>
</mxfile>
